<?xml version="1.0" encoding="UTF-8" standalone="no"?>
<!-- Created with Inkscape (http://www.inkscape.org/) -->
<svg
   xmlns:dc="http://purl.org/dc/elements/1.1/"
   xmlns:cc="http://web.resource.org/cc/"
   xmlns:rdf="http://www.w3.org/1999/02/22-rdf-syntax-ns#"
   xmlns:svg="http://www.w3.org/2000/svg"
   xmlns="http://www.w3.org/2000/svg"
   xmlns:xlink="http://www.w3.org/1999/xlink"
   xmlns:sodipodi="http://sodipodi.sourceforge.net/DTD/sodipodi-0.dtd"
   xmlns:inkscape="http://www.inkscape.org/namespaces/inkscape"
   width="314"
   height="178"
   id="svg2"
   sodipodi:version="0.32"
   inkscape:version="0.45.1"
   version="1.0"
   inkscape:output_extension="org.inkscape.output.svg.inkscape">
  <g
     inkscape:label="Layer 1"
     inkscape:groupmode="layer"
     id="layer1"
     transform="translate(-3.0430462,-873.48231)">
    <g
       id="g23467"
       clip-path="url(#id68)"
       transform="matrix(10.184232,0,0,-10.184232,-1751.2011,5512.3898)">
      <path
         id="path23469"
         d="M 203.014,448.422 C 202.969,448.53 202.905,448.625 202.83,448.703 L 202.827,448.706 L 200.485,451.047 C 200.404,451.129 200.304,451.197 200.192,451.244 C 200.086,451.287 199.975,451.309 199.868,451.311 L 187.672,451.311 C 186.596,452.388 185.827,453.157 185.827,453.157 L 185.826,453.157 C 185.792,453.191 185.567,453.416 185.317,453.415 C 185.156,453.415 184.994,453.341 184.993,453.341 L 184.834,453.486 C 184.76,453.532 184.48,453.667 184.187,453.439 L 184.093,453.353 L 183.939,453.447 C 183.825,453.503 183.683,453.546 183.52,453.546 C 183.488,453.546 182.6,453.49 182.369,453.4 C 182.321,453.465 182.215,453.598 182.022,453.709 C 181.95,453.75 181.667,453.862 181.406,453.684 L 181.233,453.498 L 181.188,453.4 C 181.162,453.405 181.011,453.433 180.879,453.384 C 180.687,453.493 180.538,453.563 179.917,453.557 C 180.023,453.72 180.16,454.023 180.044,454.398 C 180.021,454.476 179.902,454.765 179.495,454.882 L 179.318,454.994 C 179.186,455.063 178.819,455.223 178.193,454.989 C 177.91,454.884 177.683,454.677 177.534,454.506 L 177.375,454.266 C 177,454.563 176.564,454.826 176.09,455.036 C 175.454,455.316 174.753,455.499 174.048,455.5 L 173.939,455.499 C 173.669,455.491 173.407,455.472 173.211,455.436 C 173.026,455.401 172.663,455.36 172.372,454.929 L 172.291,454.762 C 172.218,454.536 172.26,454.395 172.282,454.328 L 172.368,454.163 L 172.572,453.984 C 172.673,453.93 172.752,453.911 172.818,453.903 C 173.237,453.85 173.426,454.002 173.51,454.094 L 173.562,454.162 C 173.833,454.173 174.19,454.133 174.461,454.077 C 174.446,454.054 174.361,453.893 174.331,453.736 C 174.312,453.629 174.292,453.525 174.28,453.422 C 174.237,453.411 173.772,453.296 173.466,453.086 C 173.366,453.018 173.273,452.939 173.183,452.832 C 172.917,452.52 173.044,452.152 173.074,452.083 C 173.202,451.785 173.425,451.572 173.507,451.493 L 180.334,444.666 L 178.439,442.771 C 178.357,442.69 178.289,442.59 178.243,442.478 C 178.199,442.372 178.177,442.26 178.175,442.153 L 178.175,438.746 C 178.175,438.563 178.247,438.374 178.388,438.234 C 178.528,438.093 178.716,438.021 178.899,438.021 L 182.304,438.021 C 182.412,438.023 182.525,438.044 182.632,438.089 C 182.744,438.135 182.844,438.203 182.924,438.285 L 184.819,440.18 L 186.717,438.283 L 186.715,438.285 C 186.796,438.203 186.896,438.135 187.007,438.089 C 187.114,438.044 187.226,438.023 187.335,438.021 L 199.868,438.021 C 199.975,438.023 200.086,438.044 200.192,438.089 C 200.304,438.135 200.404,438.203 200.485,438.285 L 202.827,440.627 L 202.83,440.63 C 202.905,440.707 202.969,440.803 203.014,440.91 L 203.079,441.177 L 203.083,441.19 L 203.083,448.081 C 203.083,448.195 203.059,448.311 203.014,448.422"
         style="fill:#243e65;fill-rule:nonzero;stroke:none" />
    </g>
    <path
       id="path23471"
       d="M 17.392474,905.70194 C 17.392474,903.73594 23.187296,903.02894 28.574765,902.70994 C 28.534014,905.73894 28.493286,910.04094 28.493286,912.97994 C 21.893894,910.56194 17.392474,906.82894 17.392474,905.70194 M 20.386641,878.34894 C 15.243608,878.48694 11.09862,879.15794 10.171861,880.10194 C 9.3672981,880.99194 8.3285172,881.71294 8.2979632,882.93494 C 8.2674012,884.14494 9.6422731,884.18994 10.457023,884.18494 L 12.035568,883.63394 L 10.935673,882.42894 C 10.935673,881.65794 15.1825,881.38394 17.310999,881.37894 C 35.54078,881.35694 56.530465,893.97794 56.561019,904.70194 C 56.581401,913.02994 45.755555,914.93794 39.777413,914.94194 C 37.659093,914.94194 35.601875,914.65494 33.646509,914.29394 C 33.554846,911.72994 33.402097,906.09994 33.330804,902.64994 L 35.214881,902.56794 C 39.634831,902.55794 45.439855,904.13694 45.450031,905.17794 L 43.91221,907.48694 C 43.922386,908.07494 45.338008,908.01994 46.570293,908.06094 C 46.794354,908.07094 49.289484,906.75694 49.289484,904.50694 C 49.279299,901.63194 45.63334,898.20694 33.758539,898.22894 L 33.249317,898.22894 C 33.137286,894.88994 32.648456,889.73794 30.784735,889.74194 C 29.246914,889.74794 28.798809,895.43194 28.666417,898.59394 C 22.005935,899.62494 16.088901,902.32594 16.099078,904.97794 C 16.099078,907.14494 20.855117,912.66494 28.564575,916.00494 C 28.686793,918.40894 29.165449,920.16594 31.355046,920.16194 C 32.94379,920.16194 33.483553,919.02594 33.656684,917.78394 C 36.141644,918.37294 38.850645,918.73294 41.712417,918.72894 C 52.894703,918.71094 61.86701,912.71094 61.836458,904.52494 C 61.805911,893.59294 39.665384,877.80294 20.386641,878.34894"
       style="fill:#b5db17;fill-rule:nonzero;stroke:none" />
    <path
       id="path23473"
       d="M 65.838862,898.46494 C 63.93441,898.55194 63.903847,906.09494 63.842747,908.90994 C 63.710351,915.19794 64.647301,915.99594 66.337885,915.91494 C 67.855348,915.90894 68.364553,915.82694 68.221967,910.50694 C 67.987734,900.40994 67.305383,898.46494 65.838862,898.46494"
       style="fill:#b5db17;fill-rule:nonzero;stroke:none" />
    <path
       id="path23475"
       d="M 67.559993,885.75994 C 65.563879,886.89494 63.516856,888.59394 62.131805,890.20894 L 62.029965,889.54694 C 62.029965,888.29294 63.883497,886.33494 67.559993,885.75994 M 67.254465,892.77094 C 66.286973,892.77094 65.47222,892.59494 64.789879,892.38494 C 66.643409,890.37694 71.114303,886.36194 73.303906,886.35794 C 74.739866,886.35794 74.994486,887.55294 74.994486,887.93994 C 74.994486,890.60894 69.586658,892.73194 67.254465,892.77094 M 66.816552,895.95594 C 71.002261,895.94794 77.662736,891.14394 77.642376,887.23294 C 77.642376,885.43994 76.725806,884.53194 74.444526,884.19994 C 73.487216,883.28694 72.061431,882.25094 69.963473,882.25494 C 63.445576,882.26494 59.22929,887.53494 59.22929,890.36694 C 59.22929,891.33494 59.565379,892.59494 60.492136,893.64794 C 60.532876,895.96094 61.082825,896.60894 61.816088,896.60894 L 63.435371,895.53394 C 64.362147,895.76994 65.482422,895.96094 66.816552,895.95594"
       style="fill:#b5db17;fill-rule:nonzero;stroke:none" />
    <path
       id="path23477"
       d="M 88.478415,899.84394 C 88.468225,898.06494 83.956575,898.10994 81.400355,898.11494 C 79.495905,898.11494 69.810708,898.29294 69.820897,903.74094 C 69.841267,907.36794 75.259266,906.46894 78.844135,906.82494 C 81.777195,907.14894 85.341645,908.07094 85.351845,909.11894 C 85.351845,911.22794 77.591446,912.11294 75.992556,912.11294 C 72.692846,912.11294 72.631746,911.10894 72.631746,910.70294 C 72.621556,910.18294 73.171506,909.31694 74.403796,909.31694 C 75.636096,909.31094 78.182135,910.89994 79.933805,910.89994 C 81.685505,910.89094 83.131705,910.16394 83.131705,909.30694 C 83.131705,907.89694 77.326666,907.28494 75.534256,907.28494 C 73.639966,907.29094 70.930983,908.02394 70.95135,910.85894 C 70.95135,912.32194 73.354826,915.82694 80.096795,915.73494 C 86.757275,915.72694 88.427495,911.96594 88.427495,909.98694 C 88.417285,905.22794 83.926065,904.78994 80.015315,904.45594 C 77.082246,904.15094 73.925146,903.97394 73.935316,903.37594 C 73.965876,901.22194 88.478415,902.73794 88.478415,899.84394"
       style="fill:#b5db17;fill-rule:nonzero;stroke:none" />
    <path
       id="path23479"
       d="M 99.538465,895.79194 L 98.886695,897.01994 C 98.896885,898.92794 101.45312,905.36394 101.46331,907.82094 L 101.0152,909.30694 C 100.40414,909.50794 95.057415,899.81194 92.827075,899.53894 C 90.535585,899.46494 89.323685,909.15194 89.333865,911.56994 C 89.333865,913.95194 89.761615,915.54794 91.533695,915.54794 C 94.181605,915.54394 92.816905,905.85794 93.876065,905.85794 C 94.670405,905.85794 98.978355,914.74994 101.38183,914.66394 C 103.989,914.66394 105.51664,910.89094 105.50642,908.40894 C 105.49626,902.72394 101.72809,895.78794 99.538465,895.79194"
       style="fill:#b5db17;fill-rule:nonzero;stroke:none" />
    <path
       id="path23481"
       d="M 117.49319,910.89094 C 116.56655,910.89094 111.38276,912.09494 111.0467,911.76694 L 111.99382,908.24394 L 117.34051,908.04294 C 119.23482,907.99794 118.87833,905.40094 117.71729,905.31994 L 113.2566,904.87594 L 113.72509,902.70094 L 120.54857,902.13094 L 121.91323,900.96594 C 122.0864,900.39594 119.98839,897.93194 117.38123,898.25194 C 112.9205,898.73594 107.13592,898.64894 107.13592,900.17794 C 107.13592,901.48794 109.85506,902.11194 109.91623,902.47394 L 109.41717,904.65794 C 109.24404,905.18294 107.31925,905.31994 107.18682,906.64294 L 107.57388,907.82094 C 107.26834,908.93794 106.34152,911.23294 106.35174,912.15794 C 106.35174,913.70994 107.4414,916.98494 110.4763,916.89894 C 115.26288,916.75294 119.55047,913.38594 119.62176,912.81594 C 119.72357,911.96194 118.42001,910.89094 117.49319,910.89094"
       style="fill:#b5db17;fill-rule:nonzero;stroke:none" />
    <path
       id="path23483"
       d="M 129.76531,911.97194 C 131.95492,908.08494 135.15268,903.07394 136.33407,903.19794 C 137.15908,903.19794 137.46448,903.95594 137.46448,905.19594 C 137.47477,908.92794 132.98355,911.99394 129.76531,911.97194 M 136.04899,899.52894 C 133.44171,899.71094 128.42097,905.21394 125.49808,908.96094 L 125.20275,907.89694 C 125.19258,906.30494 128.1765,901.62294 128.72644,900.40594 C 129.30691,899.16394 128.64495,897.55294 127.92188,898.19594 C 126.52662,899.28894 122.05586,904.48494 122.07618,909.29894 C 122.07618,910.48394 122.37153,911.77894 122.99276,913.02494 C 121.99465,916.23894 119.55047,923.49694 119.63198,927.83594 C 119.67274,930.14394 121.96412,932.40694 123.33903,932.08294 C 123.86859,931.91994 123.97039,929.01794 124.67315,926.93294 C 125.63052,924.06194 127.17848,918.74694 127.70804,916.54794 L 128.48212,916.56194 C 133.93068,916.55694 139.99022,910.73394 139.96999,905.73494 C 139.94942,900.73394 136.9858,899.50194 136.04899,899.52894"
       style="fill:#b5db17;fill-rule:nonzero;stroke:none" />
    <path
       id="path23485"
       d="M 193.25379,1044.0489 L 193.25379,1009.4929 L 192.96858,1008.2199 L 192.18442,1006.9919 L 170.36976,985.24194 L 170.36976,982.44494 L 192.18442,960.69094 L 192.96858,959.46294 L 193.25379,958.10394 L 193.25379,923.55594 L 192.69366,922.14194 L 191.32894,921.57994 L 158.09785,921.57994 L 156.77378,921.89094 L 155.58236,922.67494 L 132.41309,945.90694 L 129.68382,945.90694 L 106.51468,922.67494 L 105.32311,921.89094 L 104.00936,921.57994 L 70.768029,921.57994 L 69.413522,922.14194 L 68.833025,923.55594 L 68.833025,958.10394 L 69.128365,959.46294 L 69.912548,960.69094 L 91.727185,982.44494 L 91.727185,985.24194 L 69.912548,1006.9919 L 69.128365,1008.2199 L 68.833025,1009.4929 L 68.833025,1044.0489 L 69.413522,1045.4679 L 70.768029,1046.0249 L 105.3435,1046.0249 L 106.67762,1045.7919 L 107.85902,1044.9299 L 129.68382,1023.1749 L 132.42333,1023.1749 L 154.23793,1044.9299 L 155.40913,1045.7919 L 156.75352,1046.0249 L 191.32894,1046.0249 L 192.69366,1045.4679 L 193.25379,1044.0489"
       style="fill:#b5db17;fill-rule:nonzero;stroke:none" />
    <path
       id="path23487"
       d="M 284.19903,1046.0249 L 285.51278,1045.7869 L 286.70436,1044.9339 L 310.53551,1021.0859 L 311.2891,1020.0039 L 311.56401,1018.5769 L 311.56401,949.10594 L 311.2891,947.60094 L 310.53551,946.51894 L 286.70436,922.67094 L 285.51278,921.89594 L 284.19903,921.57994 L 200.64749,921.57994 L 199.28283,922.13694 L 198.71248,923.51494 L 198.71248,1044.0489 L 199.28283,1045.4679 L 200.64749,1046.0249 L 284.19903,1046.0249"
       style="fill:#b5db17;fill-rule:nonzero;stroke:none" />
    <path
       id="path23489"
       d="M 304.34348,1042.9859 C 304.34348,1041.8729 305.13788,1041.3479 305.71826,1041.3479 L 305.75889,1041.3479 L 306.99114,1041.7039 L 307.05233,1041.7489 L 306.89963,1042.2599 L 306.80794,1042.2829 L 305.66737,1041.9359 L 304.99523,1042.7859 L 306.60433,1043.5189 L 307.28655,1044.5639 L 305.79965,1045.9389 L 304.22121,1044.9569 L 304.2416,1044.9059 L 304.61839,1044.5919 L 304.74058,1044.6009 L 305.79965,1045.2719 L 306.65513,1044.5699 L 306.33949,1044.0489 L 304.34348,1043.2689 L 304.34348,1042.9859"
       style="fill:#243e65;fill-rule:nonzero;stroke:none" />
    <path
       id="path23491"
       d="M 310.93263,1041.4029 L 311.00384,1041.3749 L 311.47227,1041.3749 L 311.55377,1041.4939 L 311.55377,1045.7959 L 311.47227,1045.8319 L 311.00384,1045.8319 L 310.92235,1045.7959 L 310.92235,1042.7619 L 309.79186,1044.9339 L 309.71039,1044.9609 L 309.62896,1044.9339 L 308.5088,1042.7619 L 308.5088,1045.7959 L 308.42732,1045.8319 L 307.96894,1045.8319 L 307.87733,1045.7959 L 307.87733,1041.6799 L 307.92818,1041.5299 L 308.38657,1041.3519 L 308.4985,1041.3659 L 309.72072,1043.8569 L 310.93263,1041.4029"
       style="fill:#243e65;fill-rule:nonzero;stroke:none" />
  </g>
</svg>
